<mxfile host="app.diagrams.net" modified="2023-10-25T02:41:05.636Z" agent="Mozilla/5.0 (X11; Linux x86_64; rv:109.0) Gecko/20100101 Firefox/118.0" etag="EOW1jrqG3myv8HUnXN0y" version="22.0.7" type="github">
  <diagram name="Page-1" id="d66fe2ae-3e9f-cf2f-6d29-e24063ad5d60">
    <mxGraphModel dx="3887" dy="953" grid="1" gridSize="10" guides="1" tooltips="1" connect="1" arrows="1" fold="1" page="1" pageScale="1" pageWidth="1100" pageHeight="850" background="none" math="0" shadow="0">
      <root>
        <mxCell id="0" />
        <mxCell id="1" parent="0" />
        <mxCell id="tnLZdmoujo-tQ02s43Uw-44" style="edgeStyle=none;html=1;labelBackgroundColor=none;endArrow=none;strokeWidth=2;fontFamily=Verdana;fontSize=28;fontColor=#0066CC;rounded=0;strokeColor=#6881B3;exitX=0.5;exitY=1;exitDx=0;exitDy=0;exitPerimeter=0;" edge="1" parent="1" source="tnLZdmoujo-tQ02s43Uw-18" target="tnLZdmoujo-tQ02s43Uw-37">
          <mxGeometry relative="1" as="geometry">
            <mxPoint x="-1885" y="577" as="sourcePoint" />
            <mxPoint x="-1885" y="432" as="targetPoint" />
          </mxGeometry>
        </mxCell>
        <mxCell id="5fc5e51f7ca293a3-60" value="&lt;div&gt;Swisscom Router&lt;/div&gt;&lt;div&gt;192.168.1.1&lt;br&gt;&lt;/div&gt;" style="fontColor=#0066CC;verticalAlign=top;verticalLabelPosition=bottom;labelPosition=center;align=center;html=1;fillColor=#CCCCCC;strokeColor=#6881B3;gradientColor=none;gradientDirection=north;strokeWidth=2;shape=mxgraph.networks.router;rounded=1;shadow=0;comic=0;labelBackgroundColor=#ffffff;" parent="1" vertex="1">
          <mxGeometry x="-1635" y="240" width="100" height="30" as="geometry" />
        </mxCell>
        <mxCell id="tnLZdmoujo-tQ02s43Uw-18" value="&lt;div&gt;bender&lt;br&gt;&lt;/div&gt;" style="fontColor=#0066CC;verticalAlign=top;verticalLabelPosition=bottom;labelPosition=center;align=center;html=1;outlineConnect=0;fillColor=#CCCCCC;strokeColor=#6881B3;gradientColor=none;gradientDirection=north;strokeWidth=2;shape=mxgraph.networks.wireless_hub;" vertex="1" parent="1">
          <mxGeometry x="-1975" y="567" width="100" height="85" as="geometry" />
        </mxCell>
        <mxCell id="tnLZdmoujo-tQ02s43Uw-22" value="192.168.2.1" style="text;html=1;strokeColor=none;fillColor=none;align=center;verticalAlign=middle;whiteSpace=wrap;rounded=0;fontColor=#1a5fb4;" vertex="1" parent="1">
          <mxGeometry x="-2015" y="694" width="90" height="30" as="geometry" />
        </mxCell>
        <mxCell id="tnLZdmoujo-tQ02s43Uw-23" value="bender" style="swimlane;fontStyle=0;childLayout=stackLayout;horizontal=1;startSize=30;horizontalStack=0;resizeParent=1;resizeParentMax=0;resizeLast=0;collapsible=1;marginBottom=0;whiteSpace=wrap;html=1;" vertex="1" parent="1">
          <mxGeometry x="-1835" y="860" width="140" height="150" as="geometry" />
        </mxCell>
        <mxCell id="tnLZdmoujo-tQ02s43Uw-82" value="Cisco Router" style="text;strokeColor=none;fillColor=none;align=left;verticalAlign=middle;spacingLeft=4;spacingRight=4;overflow=hidden;points=[[0,0.5],[1,0.5]];portConstraint=eastwest;rotatable=0;whiteSpace=wrap;html=1;" vertex="1" parent="tnLZdmoujo-tQ02s43Uw-23">
          <mxGeometry y="30" width="140" height="30" as="geometry" />
        </mxCell>
        <mxCell id="tnLZdmoujo-tQ02s43Uw-24" value="&lt;div&gt;DHCP 192.168.2.0/24&lt;/div&gt;" style="text;strokeColor=none;fillColor=none;align=left;verticalAlign=middle;spacingLeft=4;spacingRight=4;overflow=hidden;points=[[0,0.5],[1,0.5]];portConstraint=eastwest;rotatable=0;whiteSpace=wrap;html=1;fontStyle=0" vertex="1" parent="tnLZdmoujo-tQ02s43Uw-23">
          <mxGeometry y="60" width="140" height="30" as="geometry" />
        </mxCell>
        <mxCell id="tnLZdmoujo-tQ02s43Uw-59" value="WLAN (2.4/5 GHz)" style="text;strokeColor=none;fillColor=none;align=left;verticalAlign=middle;spacingLeft=4;spacingRight=4;overflow=hidden;points=[[0,0.5],[1,0.5]];portConstraint=eastwest;rotatable=0;whiteSpace=wrap;html=1;" vertex="1" parent="tnLZdmoujo-tQ02s43Uw-23">
          <mxGeometry y="90" width="140" height="30" as="geometry" />
        </mxCell>
        <mxCell id="tnLZdmoujo-tQ02s43Uw-60" value="SSID: bender" style="text;strokeColor=none;fillColor=none;align=left;verticalAlign=middle;spacingLeft=4;spacingRight=4;overflow=hidden;points=[[0,0.5],[1,0.5]];portConstraint=eastwest;rotatable=0;whiteSpace=wrap;html=1;" vertex="1" parent="tnLZdmoujo-tQ02s43Uw-23">
          <mxGeometry y="120" width="140" height="30" as="geometry" />
        </mxCell>
        <mxCell id="tnLZdmoujo-tQ02s43Uw-30" value="" style="html=1;outlineConnect=0;fillColor=#CCCCCC;strokeColor=#6881B3;gradientColor=none;gradientDirection=north;strokeWidth=2;shape=mxgraph.networks.bus;gradientColor=none;gradientDirection=north;fontColor=#ffffff;perimeter=backbonePerimeter;backboneSize=20;" vertex="1" parent="1">
          <mxGeometry x="-1965" y="404" width="820" height="20" as="geometry" />
        </mxCell>
        <mxCell id="tnLZdmoujo-tQ02s43Uw-31" style="edgeStyle=none;html=1;labelBackgroundColor=none;endArrow=none;strokeWidth=2;fontFamily=Verdana;fontSize=28;fontColor=#0066CC;rounded=0;strokeColor=#6881B3;exitX=0.5;exitY=1;exitDx=0;exitDy=0;exitPerimeter=0;fontStyle=1" edge="1" parent="1" source="5fc5e51f7ca293a3-60" target="tnLZdmoujo-tQ02s43Uw-30">
          <mxGeometry relative="1" as="geometry">
            <mxPoint x="-1730" y="70" as="sourcePoint" />
            <mxPoint x="-1770" y="180" as="targetPoint" />
          </mxGeometry>
        </mxCell>
        <mxCell id="tnLZdmoujo-tQ02s43Uw-35" style="edgeStyle=none;html=1;labelBackgroundColor=none;endArrow=none;strokeWidth=2;fontFamily=Verdana;fontSize=28;fontColor=#0066CC;rounded=0;strokeColor=#6881B3;exitX=0.503;exitY=0.24;exitDx=0;exitDy=0;exitPerimeter=0;" edge="1" parent="1" source="tnLZdmoujo-tQ02s43Uw-27" target="tnLZdmoujo-tQ02s43Uw-30">
          <mxGeometry relative="1" as="geometry">
            <mxPoint x="-1760" y="560" as="sourcePoint" />
            <mxPoint x="-955" y="685" as="targetPoint" />
          </mxGeometry>
        </mxCell>
        <mxCell id="tnLZdmoujo-tQ02s43Uw-36" style="edgeStyle=none;html=1;labelBackgroundColor=none;endArrow=none;strokeWidth=2;fontFamily=Verdana;fontSize=28;fontColor=#0066CC;rounded=0;strokeColor=#6881B3;exitX=0.5;exitY=0;exitDx=0;exitDy=0;exitPerimeter=0;" edge="1" parent="1" source="tnLZdmoujo-tQ02s43Uw-9" target="tnLZdmoujo-tQ02s43Uw-30">
          <mxGeometry relative="1" as="geometry">
            <mxPoint x="-1750" y="570" as="sourcePoint" />
            <mxPoint x="-1615" y="430" as="targetPoint" />
          </mxGeometry>
        </mxCell>
        <mxCell id="tnLZdmoujo-tQ02s43Uw-38" style="edgeStyle=none;html=1;labelBackgroundColor=none;endArrow=none;strokeWidth=2;fontFamily=Verdana;fontSize=28;fontColor=#0066CC;rounded=0;strokeColor=#6881B3;" edge="1" parent="1" source="tnLZdmoujo-tQ02s43Uw-18" target="tnLZdmoujo-tQ02s43Uw-30">
          <mxGeometry relative="1" as="geometry">
            <mxPoint x="-1750" y="570" as="sourcePoint" />
            <mxPoint x="-1750" y="432" as="targetPoint" />
          </mxGeometry>
        </mxCell>
        <mxCell id="tnLZdmoujo-tQ02s43Uw-40" value="Swisscom Router" style="swimlane;fontStyle=0;childLayout=stackLayout;horizontal=1;startSize=30;horizontalStack=0;resizeParent=1;resizeParentMax=0;resizeLast=0;collapsible=1;marginBottom=0;whiteSpace=wrap;html=1;" vertex="1" parent="1">
          <mxGeometry x="-1970" y="20" width="140" height="60" as="geometry" />
        </mxCell>
        <mxCell id="tnLZdmoujo-tQ02s43Uw-41" value="&lt;div&gt;DHCP 192.168.1.0/24&lt;/div&gt;" style="text;strokeColor=none;fillColor=none;align=left;verticalAlign=middle;spacingLeft=4;spacingRight=4;overflow=hidden;points=[[0,0.5],[1,0.5]];portConstraint=eastwest;rotatable=0;whiteSpace=wrap;html=1;" vertex="1" parent="tnLZdmoujo-tQ02s43Uw-40">
          <mxGeometry y="30" width="140" height="30" as="geometry" />
        </mxCell>
        <mxCell id="tnLZdmoujo-tQ02s43Uw-46" value="scheldon" style="swimlane;fontStyle=0;childLayout=stackLayout;horizontal=1;startSize=30;horizontalStack=0;resizeParent=1;resizeParentMax=0;resizeLast=0;collapsible=1;marginBottom=0;whiteSpace=wrap;html=1;" vertex="1" parent="1">
          <mxGeometry x="-1655" y="860" width="140" height="240" as="geometry" />
        </mxCell>
        <mxCell id="tnLZdmoujo-tQ02s43Uw-84" value="&lt;div&gt;AWOW AL34&lt;/div&gt;" style="text;strokeColor=none;fillColor=none;align=left;verticalAlign=middle;spacingLeft=4;spacingRight=4;overflow=hidden;points=[[0,0.5],[1,0.5]];portConstraint=eastwest;rotatable=0;whiteSpace=wrap;html=1;" vertex="1" parent="tnLZdmoujo-tQ02s43Uw-46">
          <mxGeometry y="30" width="140" height="30" as="geometry" />
        </mxCell>
        <mxCell id="tnLZdmoujo-tQ02s43Uw-47" value="&lt;div&gt;SSH &lt;font color=&quot;#ff4f00&quot;&gt;(22)&lt;/font&gt;&lt;br&gt;&lt;/div&gt;" style="text;strokeColor=none;fillColor=none;align=left;verticalAlign=middle;spacingLeft=4;spacingRight=4;overflow=hidden;points=[[0,0.5],[1,0.5]];portConstraint=eastwest;rotatable=0;whiteSpace=wrap;html=1;fontColor=#000000;" vertex="1" parent="tnLZdmoujo-tQ02s43Uw-46">
          <mxGeometry y="60" width="140" height="30" as="geometry" />
        </mxCell>
        <mxCell id="tnLZdmoujo-tQ02s43Uw-48" value="&lt;font color=&quot;#000000&quot;&gt;HTTP/S&lt;/font&gt; (80/443)" style="text;strokeColor=none;fillColor=none;align=left;verticalAlign=middle;spacingLeft=4;spacingRight=4;overflow=hidden;points=[[0,0.5],[1,0.5]];portConstraint=eastwest;rotatable=0;whiteSpace=wrap;html=1;fontColor=#ff4f00;" vertex="1" parent="tnLZdmoujo-tQ02s43Uw-46">
          <mxGeometry y="90" width="140" height="30" as="geometry" />
        </mxCell>
        <mxCell id="tnLZdmoujo-tQ02s43Uw-49" value="&lt;font color=&quot;#000000&quot;&gt;Transmission &lt;/font&gt;(51413/UDP)" style="text;strokeColor=none;fillColor=none;align=left;verticalAlign=middle;spacingLeft=4;spacingRight=4;overflow=hidden;points=[[0,0.5],[1,0.5]];portConstraint=eastwest;rotatable=0;whiteSpace=wrap;html=1;fontColor=#ff4f00;" vertex="1" parent="tnLZdmoujo-tQ02s43Uw-46">
          <mxGeometry y="120" width="140" height="30" as="geometry" />
        </mxCell>
        <mxCell id="tnLZdmoujo-tQ02s43Uw-85" value="Podman" style="text;strokeColor=none;fillColor=none;align=left;verticalAlign=middle;spacingLeft=4;spacingRight=4;overflow=hidden;points=[[0,0.5],[1,0.5]];portConstraint=eastwest;rotatable=0;whiteSpace=wrap;html=1;" vertex="1" parent="tnLZdmoujo-tQ02s43Uw-46">
          <mxGeometry y="150" width="140" height="30" as="geometry" />
        </mxCell>
        <mxCell id="tnLZdmoujo-tQ02s43Uw-80" value="&lt;div&gt;Kodi&lt;/div&gt;" style="text;strokeColor=none;fillColor=none;align=left;verticalAlign=middle;spacingLeft=4;spacingRight=4;overflow=hidden;points=[[0,0.5],[1,0.5]];portConstraint=eastwest;rotatable=0;whiteSpace=wrap;html=1;" vertex="1" parent="tnLZdmoujo-tQ02s43Uw-46">
          <mxGeometry y="180" width="140" height="30" as="geometry" />
        </mxCell>
        <mxCell id="tnLZdmoujo-tQ02s43Uw-50" value="Samba" style="text;strokeColor=none;fillColor=none;align=left;verticalAlign=middle;spacingLeft=4;spacingRight=4;overflow=hidden;points=[[0,0.5],[1,0.5]];portConstraint=eastwest;rotatable=0;whiteSpace=wrap;html=1;fontColor=#26a269;" vertex="1" parent="tnLZdmoujo-tQ02s43Uw-46">
          <mxGeometry y="210" width="140" height="30" as="geometry" />
        </mxCell>
        <mxCell id="tnLZdmoujo-tQ02s43Uw-52" value="IPTV" style="fontColor=#0066CC;verticalAlign=top;verticalLabelPosition=bottom;labelPosition=center;align=center;html=1;outlineConnect=0;fillColor=#CCCCCC;strokeColor=#6881B3;gradientColor=none;gradientDirection=north;strokeWidth=2;shape=mxgraph.networks.monitor;" vertex="1" parent="1">
          <mxGeometry x="-1625" y="750" width="80" height="65" as="geometry" />
        </mxCell>
        <mxCell id="tnLZdmoujo-tQ02s43Uw-53" value="" style="endArrow=none;dashed=1;html=1;dashPattern=1 3;strokeWidth=2;rounded=0;exitX=0.263;exitY=-0.059;exitDx=0;exitDy=0;exitPerimeter=0;entryX=0.678;entryY=0.554;entryDx=0;entryDy=0;entryPerimeter=0;" edge="1" parent="1" source="tnLZdmoujo-tQ02s43Uw-52" target="tnLZdmoujo-tQ02s43Uw-9">
          <mxGeometry width="50" height="50" relative="1" as="geometry">
            <mxPoint x="-1655" y="650" as="sourcePoint" />
            <mxPoint x="-1565" y="620" as="targetPoint" />
            <Array as="points" />
          </mxGeometry>
        </mxCell>
        <mxCell id="tnLZdmoujo-tQ02s43Uw-54" value="" style="endArrow=none;dashed=1;html=1;dashPattern=1 3;strokeWidth=2;rounded=0;entryX=0.551;entryY=0.783;entryDx=0;entryDy=0;entryPerimeter=0;" edge="1" parent="1" source="tnLZdmoujo-tQ02s43Uw-52" target="tnLZdmoujo-tQ02s43Uw-27">
          <mxGeometry width="50" height="50" relative="1" as="geometry">
            <mxPoint x="-1480" y="704" as="sourcePoint" />
            <mxPoint x="-1555" y="630" as="targetPoint" />
            <Array as="points" />
          </mxGeometry>
        </mxCell>
        <mxCell id="tnLZdmoujo-tQ02s43Uw-9" value="&lt;div&gt;Swisscom TV&lt;/div&gt;&lt;div&gt;                                                                  192.168.1.101&lt;br&gt;&lt;/div&gt;" style="fontColor=#0066CC;verticalAlign=top;verticalLabelPosition=bottom;labelPosition=center;align=center;html=1;fillColor=#CCCCCC;strokeColor=#6881B3;gradientColor=none;gradientDirection=north;strokeWidth=2;shape=mxgraph.networks.server;rounded=1;shadow=0;comic=0;labelBackgroundColor=#ffffff;" vertex="1" parent="1">
          <mxGeometry x="-1800" y="559" width="90" height="100" as="geometry" />
        </mxCell>
        <mxCell id="tnLZdmoujo-tQ02s43Uw-27" value="&lt;div&gt;scheldon&lt;/div&gt;&lt;div&gt;192.168.1.103&lt;br&gt;&lt;/div&gt;" style="fontColor=#0066CC;verticalAlign=top;verticalLabelPosition=bottom;labelPosition=center;align=center;html=1;fillColor=#CCCCCC;strokeColor=#ff7800;gradientColor=none;gradientDirection=north;strokeWidth=2;shape=mxgraph.networks.server;rounded=1;shadow=0;comic=0;labelBackgroundColor=#ffffff;" vertex="1" parent="1">
          <mxGeometry x="-1630" y="559" width="90" height="100" as="geometry" />
        </mxCell>
        <mxCell id="tnLZdmoujo-tQ02s43Uw-62" style="edgeStyle=none;html=1;labelBackgroundColor=none;endArrow=none;strokeWidth=2;fontFamily=Verdana;fontSize=28;fontColor=#0066CC;rounded=0;strokeColor=#6881B3;" edge="1" parent="1" target="tnLZdmoujo-tQ02s43Uw-30">
          <mxGeometry relative="1" as="geometry">
            <mxPoint x="-1410" y="570" as="sourcePoint" />
            <mxPoint x="-1580" y="432" as="targetPoint" />
          </mxGeometry>
        </mxCell>
        <mxCell id="tnLZdmoujo-tQ02s43Uw-63" value="leonard" style="swimlane;fontStyle=0;childLayout=stackLayout;horizontal=1;startSize=30;horizontalStack=0;resizeParent=1;resizeParentMax=0;resizeLast=0;collapsible=1;marginBottom=0;whiteSpace=wrap;html=1;fillColor=#f8cecc;strokeColor=#b85450;" vertex="1" parent="1">
          <mxGeometry x="-1480" y="860" width="140" height="180" as="geometry" />
        </mxCell>
        <mxCell id="tnLZdmoujo-tQ02s43Uw-69" value="RasPI 4" style="text;strokeColor=none;fillColor=none;align=left;verticalAlign=middle;spacingLeft=4;spacingRight=4;overflow=hidden;points=[[0,0.5],[1,0.5]];portConstraint=eastwest;rotatable=0;whiteSpace=wrap;html=1;" vertex="1" parent="tnLZdmoujo-tQ02s43Uw-63">
          <mxGeometry y="30" width="140" height="30" as="geometry" />
        </mxCell>
        <mxCell id="tnLZdmoujo-tQ02s43Uw-70" value="&lt;font color=&quot;#000000&quot;&gt;SSH&lt;/font&gt;" style="text;strokeColor=none;fillColor=none;align=left;verticalAlign=middle;spacingLeft=4;spacingRight=4;overflow=hidden;points=[[0,0.5],[1,0.5]];portConstraint=eastwest;rotatable=0;whiteSpace=wrap;html=1;fontColor=#ff4f00;" vertex="1" parent="tnLZdmoujo-tQ02s43Uw-63">
          <mxGeometry y="60" width="140" height="30" as="geometry" />
        </mxCell>
        <mxCell id="tnLZdmoujo-tQ02s43Uw-73" value="&lt;font color=&quot;#000000&quot;&gt;LDAP&lt;/font&gt;" style="text;strokeColor=none;fillColor=none;align=left;verticalAlign=middle;spacingLeft=4;spacingRight=4;overflow=hidden;points=[[0,0.5],[1,0.5]];portConstraint=eastwest;rotatable=0;whiteSpace=wrap;html=1;fontColor=#ff4f00;" vertex="1" parent="tnLZdmoujo-tQ02s43Uw-63">
          <mxGeometry y="90" width="140" height="30" as="geometry" />
        </mxCell>
        <mxCell id="tnLZdmoujo-tQ02s43Uw-74" value="&lt;font color=&quot;#000000&quot;&gt;Syncthing&lt;/font&gt;" style="text;strokeColor=none;fillColor=none;align=left;verticalAlign=middle;spacingLeft=4;spacingRight=4;overflow=hidden;points=[[0,0.5],[1,0.5]];portConstraint=eastwest;rotatable=0;whiteSpace=wrap;html=1;fontColor=#ff4f00;" vertex="1" parent="tnLZdmoujo-tQ02s43Uw-63">
          <mxGeometry y="120" width="140" height="30" as="geometry" />
        </mxCell>
        <mxCell id="tnLZdmoujo-tQ02s43Uw-86" value="&lt;div&gt;Ansible-Controller&lt;/div&gt;" style="text;strokeColor=none;fillColor=none;align=left;verticalAlign=middle;spacingLeft=4;spacingRight=4;overflow=hidden;points=[[0,0.5],[1,0.5]];portConstraint=eastwest;rotatable=0;whiteSpace=wrap;html=1;" vertex="1" parent="tnLZdmoujo-tQ02s43Uw-63">
          <mxGeometry y="150" width="140" height="30" as="geometry" />
        </mxCell>
        <mxCell id="tnLZdmoujo-tQ02s43Uw-71" value="USB HD" style="fontColor=#0066CC;verticalAlign=top;verticalLabelPosition=bottom;labelPosition=center;align=center;html=1;outlineConnect=0;fillColor=#CCCCCC;strokeColor=#6881B3;gradientColor=none;gradientDirection=north;strokeWidth=2;shape=mxgraph.networks.external_storage;" vertex="1" parent="1">
          <mxGeometry x="-1495" y="751" width="40" height="43" as="geometry" />
        </mxCell>
        <mxCell id="tnLZdmoujo-tQ02s43Uw-72" value="" style="endArrow=none;dashed=1;html=1;dashPattern=1 3;strokeWidth=2;rounded=0;entryX=0.967;entryY=1.017;entryDx=0;entryDy=0;entryPerimeter=0;exitX=0;exitY=0.25;exitDx=0;exitDy=0;exitPerimeter=0;" edge="1" parent="1" source="tnLZdmoujo-tQ02s43Uw-71" target="tnLZdmoujo-tQ02s43Uw-27">
          <mxGeometry width="50" height="50" relative="1" as="geometry">
            <mxPoint x="-1485" y="760" as="sourcePoint" />
            <mxPoint x="-1570" y="647" as="targetPoint" />
            <Array as="points" />
          </mxGeometry>
        </mxCell>
        <mxCell id="tnLZdmoujo-tQ02s43Uw-75" value="asterix" style="fontColor=#0066CC;verticalAlign=top;verticalLabelPosition=bottom;labelPosition=center;align=center;html=1;outlineConnect=0;fillColor=#CCCCCC;strokeColor=#6881B3;gradientColor=none;gradientDirection=north;strokeWidth=2;shape=mxgraph.networks.laptop;" vertex="1" parent="1">
          <mxGeometry x="-2150" y="864" width="100" height="55" as="geometry" />
        </mxCell>
        <mxCell id="tnLZdmoujo-tQ02s43Uw-77" value="192.168.1.102" style="text;html=1;strokeColor=none;fillColor=none;align=center;verticalAlign=middle;whiteSpace=wrap;rounded=0;fontColor=#1a5fb4;" vertex="1" parent="1">
          <mxGeometry x="-2025" y="529" width="100" height="30" as="geometry" />
        </mxCell>
        <mxCell id="tnLZdmoujo-tQ02s43Uw-78" style="edgeStyle=none;html=1;labelBackgroundColor=none;endArrow=none;strokeWidth=2;fontFamily=Verdana;fontSize=28;fontColor=#0066CC;rounded=0;strokeColor=#6881B3;entryX=0.6;entryY=0.443;entryDx=0;entryDy=0;entryPerimeter=0;" edge="1" parent="1" source="tnLZdmoujo-tQ02s43Uw-37" target="tnLZdmoujo-tQ02s43Uw-76">
          <mxGeometry relative="1" as="geometry">
            <mxPoint x="-1945" y="790" as="sourcePoint" />
            <mxPoint x="-1925" y="830" as="targetPoint" />
          </mxGeometry>
        </mxCell>
        <mxCell id="tnLZdmoujo-tQ02s43Uw-76" value="cartman" style="fontColor=#0066CC;verticalAlign=top;verticalLabelPosition=bottom;labelPosition=center;align=center;html=1;outlineConnect=0;fillColor=#CCCCCC;strokeColor=#6881B3;gradientColor=none;gradientDirection=north;strokeWidth=2;shape=mxgraph.networks.pc;" vertex="1" parent="1">
          <mxGeometry x="-2005" y="849" width="100" height="70" as="geometry" />
        </mxCell>
        <mxCell id="tnLZdmoujo-tQ02s43Uw-79" style="edgeStyle=none;html=1;labelBackgroundColor=none;endArrow=none;strokeWidth=2;fontFamily=Verdana;fontSize=28;fontColor=#0066CC;rounded=0;strokeColor=#6881B3;" edge="1" parent="1">
          <mxGeometry relative="1" as="geometry">
            <mxPoint x="-2100" y="780" as="sourcePoint" />
            <mxPoint x="-2100.4147899159666" y="859.9999999999998" as="targetPoint" />
          </mxGeometry>
        </mxCell>
        <mxCell id="tnLZdmoujo-tQ02s43Uw-37" value="" style="html=1;outlineConnect=0;fillColor=#CCCCCC;strokeColor=#6881B3;gradientColor=none;gradientDirection=north;strokeWidth=2;shape=mxgraph.networks.bus;gradientColor=none;gradientDirection=north;fontColor=#ffffff;perimeter=backbonePerimeter;backboneSize=20;" vertex="1" parent="1">
          <mxGeometry x="-2175" y="762.5" width="290" height="20" as="geometry" />
        </mxCell>
        <mxCell id="tnLZdmoujo-tQ02s43Uw-89" value="Legende" style="swimlane;fontStyle=0;childLayout=stackLayout;horizontal=1;startSize=30;horizontalStack=0;resizeParent=1;resizeParentMax=0;resizeLast=0;collapsible=1;marginBottom=0;whiteSpace=wrap;html=1;" vertex="1" parent="1">
          <mxGeometry x="-2175" y="20" width="140" height="150" as="geometry" />
        </mxCell>
        <mxCell id="tnLZdmoujo-tQ02s43Uw-106" value="&lt;font color=&quot;#b85450&quot;&gt;Under Construction&lt;/font&gt;" style="text;strokeColor=none;fillColor=none;align=left;verticalAlign=middle;spacingLeft=4;spacingRight=4;overflow=hidden;points=[[0,0.5],[1,0.5]];portConstraint=eastwest;rotatable=0;whiteSpace=wrap;html=1;" vertex="1" parent="tnLZdmoujo-tQ02s43Uw-89">
          <mxGeometry y="30" width="140" height="30" as="geometry" />
        </mxCell>
        <mxCell id="tnLZdmoujo-tQ02s43Uw-90" value="&lt;font color=&quot;#ff4f00&quot;&gt;Extern &amp;amp; intern routed/reachable&lt;br&gt;&lt;/font&gt;" style="text;strokeColor=none;fillColor=none;align=left;verticalAlign=middle;spacingLeft=4;spacingRight=4;overflow=hidden;points=[[0,0.5],[1,0.5]];portConstraint=eastwest;rotatable=0;whiteSpace=wrap;html=1;" vertex="1" parent="tnLZdmoujo-tQ02s43Uw-89">
          <mxGeometry y="60" width="140" height="30" as="geometry" />
        </mxCell>
        <mxCell id="tnLZdmoujo-tQ02s43Uw-91" value="Intern routed/reachable" style="text;strokeColor=none;fillColor=none;align=left;verticalAlign=middle;spacingLeft=4;spacingRight=4;overflow=hidden;points=[[0,0.5],[1,0.5]];portConstraint=eastwest;rotatable=0;whiteSpace=wrap;html=1;fontColor=#26a269;" vertex="1" parent="tnLZdmoujo-tQ02s43Uw-89">
          <mxGeometry y="90" width="140" height="30" as="geometry" />
        </mxCell>
        <mxCell id="tnLZdmoujo-tQ02s43Uw-92" value="&lt;font color=&quot;#dc8add&quot;&gt;Docker-Container&lt;/font&gt;" style="text;strokeColor=none;fillColor=none;align=left;verticalAlign=middle;spacingLeft=4;spacingRight=4;overflow=hidden;points=[[0,0.5],[1,0.5]];portConstraint=eastwest;rotatable=0;whiteSpace=wrap;html=1;" vertex="1" parent="tnLZdmoujo-tQ02s43Uw-89">
          <mxGeometry y="120" width="140" height="30" as="geometry" />
        </mxCell>
        <mxCell id="tnLZdmoujo-tQ02s43Uw-96" style="edgeStyle=none;html=1;labelBackgroundColor=none;endArrow=none;strokeWidth=2;fontFamily=Verdana;fontSize=28;fontColor=#0066CC;rounded=0;strokeColor=#6881B3;exitX=0.5;exitY=0;exitDx=0;exitDy=0;exitPerimeter=0;" edge="1" parent="1" target="tnLZdmoujo-tQ02s43Uw-30">
          <mxGeometry relative="1" as="geometry">
            <mxPoint x="-1230.0000000000002" y="559" as="sourcePoint" />
            <mxPoint x="-1225" y="430" as="targetPoint" />
          </mxGeometry>
        </mxCell>
        <mxCell id="tnLZdmoujo-tQ02s43Uw-97" value="dilbert" style="swimlane;fontStyle=0;childLayout=stackLayout;horizontal=1;startSize=30;horizontalStack=0;resizeParent=1;resizeParentMax=0;resizeLast=0;collapsible=1;marginBottom=0;whiteSpace=wrap;html=1;fillColor=#f8cecc;strokeColor=#b85450;" vertex="1" parent="1">
          <mxGeometry x="-1300" y="860" width="140" height="60" as="geometry" />
        </mxCell>
        <mxCell id="tnLZdmoujo-tQ02s43Uw-107" value="&lt;div&gt;leonard&lt;/div&gt;&lt;div&gt;192.168.1.104&lt;br&gt;&lt;/div&gt;" style="fontColor=#0066CC;verticalAlign=top;verticalLabelPosition=bottom;labelPosition=center;align=center;html=1;fillColor=#CCCCCC;strokeColor=#6881B3;gradientColor=none;gradientDirection=north;strokeWidth=2;shape=mxgraph.networks.server;rounded=1;shadow=0;comic=0;labelBackgroundColor=#ffffff;" vertex="1" parent="1">
          <mxGeometry x="-1455" y="559.5" width="90" height="100" as="geometry" />
        </mxCell>
        <mxCell id="tnLZdmoujo-tQ02s43Uw-112" value="dilbert" style="fontColor=#0066CC;verticalAlign=top;verticalLabelPosition=bottom;labelPosition=center;align=center;html=1;fillColor=#CCCCCC;strokeColor=#6881B3;gradientColor=none;gradientDirection=north;strokeWidth=2;shape=mxgraph.networks.server;rounded=1;shadow=0;comic=0;labelBackgroundColor=#ffffff;" vertex="1" parent="1">
          <mxGeometry x="-1275" y="559.5" width="90" height="100" as="geometry" />
        </mxCell>
        <mxCell id="tnLZdmoujo-tQ02s43Uw-113" value="&lt;font color=&quot;#0066cc&quot;&gt;Internet&lt;/font&gt;" style="html=1;outlineConnect=0;fillColor=#CCCCCC;strokeColor=#6881B3;gradientColor=none;gradientDirection=north;strokeWidth=2;shape=mxgraph.networks.cloud;fontColor=#ffffff;" vertex="1" parent="1">
          <mxGeometry x="-1655" y="70" width="140" height="80" as="geometry" />
        </mxCell>
        <mxCell id="tnLZdmoujo-tQ02s43Uw-114" style="edgeStyle=none;html=1;labelBackgroundColor=none;endArrow=none;strokeWidth=2;fontFamily=Verdana;fontSize=28;fontColor=#0066CC;rounded=0;strokeColor=#6881B3;exitX=0.5;exitY=1;exitDx=0;exitDy=0;exitPerimeter=0;" edge="1" parent="1" source="tnLZdmoujo-tQ02s43Uw-113">
          <mxGeometry relative="1" as="geometry">
            <mxPoint x="-1575" y="280" as="sourcePoint" />
            <mxPoint x="-1585" y="240" as="targetPoint" />
          </mxGeometry>
        </mxCell>
      </root>
    </mxGraphModel>
  </diagram>
</mxfile>
